{"asset":{"version":"2.0","generator":"Blockbench 4.9.4 glTF exporter"},"scenes":[{"nodes":[21],"name":"blockbench_export"}],"scene":0,"nodes":[{"rotation":[-0.7071067811865475,0,0,0.7071067811865476],"name":"rocket","mesh":0},{"name":"Rocket","children":[0]},{"rotation":[0.1521233861899167,0,0,0.9883615104677607],"translation":[0,1.6875,0],"name":"hat","mesh":1},{"translation":[0,0.5,0],"name":"head","mesh":2},{"name":"head","children":[2,3]},{"name":"coat","mesh":3},{"name":"body","children":[5]},{"rotation":[0,0,0.7071067811865475,0.7071067811865476],"translation":[0,-1.3125,0],"name":"arm-left","mesh":4},{"translation":[0,-1.3125,0],"name":"hand-left","mesh":5},{"rotation":[0,0.5913096483635824,0,0.8064446042674827],"translation":[0.0625,1.3125,0.125],"name":"arm_left","children":[7,8]},{"rotation":[-0.7071067811865481,-0.7071067811865469,-3.925231146709441e-15,4.011826752332984e-15],"translation":[0.9375,0,0],"name":"arm-right","mesh":6},{"translation":[0.0625,-1.3125,0],"name":"hand-right","mesh":7},{"rotation":[-0.1392890938485261,-0.1988742850870928,-0.6123266962167179,0.7523985540697653],"translation":[-0.25,1.25,0],"name":"arm_right","children":[10,11]},{"translation":[-0.1875,-0.75,-1.3877787807814457e-17],"name":"leg_left","mesh":8},{"translation":[-0.1875,-0.75,-1.3877787807814457e-17],"name":"foot_left","mesh":9},{"rotation":[0.6868425644167334,-0.1680693062562125,0.16806930625621266,0.6868425644167346],"translation":[0.1875,0.875,-0.15625],"name":"leg_left","children":[13,14]},{"translation":[0,-0.625,0.0625],"name":"leg_right","mesh":10},{"translation":[0,-0.625,0.0625],"name":"foot_right","mesh":11},{"rotation":[0.6830127018922181,0.18301270189221902,-0.18301270189221952,0.6830127018922205],"translation":[-0.421875,0.9375,-0.1875],"name":"leg_right","children":[16,17]},{"translation":[0,0.125,0.125],"name":"Avatar","children":[4,6,9,12,15,18]},{"name":"main","children":[1,19]},{"children":[20]}],"bufferViews":[{"buffer":0,"byteOffset":0,"byteLength":1536,"target":34962,"byteStride":12},{"buffer":0,"byteOffset":1536,"byteLength":1536,"target":34962,"byteStride":12},{"buffer":0,"byteOffset":3072,"byteLength":1024,"target":34962,"byteStride":8},{"buffer":0,"byteOffset":4096,"byteLength":288,"target":34963},{"buffer":0,"byteOffset":4384,"byteLength":4752,"target":34962,"byteStride":12},{"buffer":0,"byteOffset":9136,"byteLength":4752,"target":34962,"byteStride":12},{"buffer":0,"byteOffset":13888,"byteLength":3168,"target":34962,"byteStride":8},{"buffer":0,"byteOffset":17056,"byteLength":1140,"target":34963},{"buffer":0,"byteOffset":18196,"byteLength":5760,"target":34962,"byteStride":12},{"buffer":0,"byteOffset":23956,"byteLength":5760,"target":34962,"byteStride":12},{"buffer":0,"byteOffset":29716,"byteLength":3840,"target":34962,"byteStride":8},{"buffer":0,"byteOffset":33556,"byteLength":1344,"target":34963},{"buffer":0,"byteOffset":34900,"byteLength":1176,"target":34962,"byteStride":12},{"buffer":0,"byteOffset":36076,"byteLength":1176,"target":34962,"byteStride":12},{"buffer":0,"byteOffset":37252,"byteLength":784,"target":34962,"byteStride":8},{"buffer":0,"byteOffset":38036,"byteLength":276,"target":34963},{"buffer":0,"byteOffset":38312,"byteLength":1176,"target":34962,"byteStride":12},{"buffer":0,"byteOffset":39488,"byteLength":1176,"target":34962,"byteStride":12},{"buffer":0,"byteOffset":40664,"byteLength":784,"target":34962,"byteStride":8},{"buffer":0,"byteOffset":41448,"byteLength":276,"target":34963},{"buffer":0,"byteOffset":41724,"byteLength":1344,"target":34962,"byteStride":12},{"buffer":0,"byteOffset":43068,"byteLength":1344,"target":34962,"byteStride":12},{"buffer":0,"byteOffset":44412,"byteLength":896,"target":34962,"byteStride":8},{"buffer":0,"byteOffset":45308,"byteLength":288,"target":34963},{"buffer":0,"byteOffset":45596,"byteLength":1176,"target":34962,"byteStride":12},{"buffer":0,"byteOffset":46772,"byteLength":1176,"target":34962,"byteStride":12},{"buffer":0,"byteOffset":47948,"byteLength":784,"target":34962,"byteStride":8},{"buffer":0,"byteOffset":48732,"byteLength":276,"target":34963},{"buffer":0,"byteOffset":49008,"byteLength":1344,"target":34962,"byteStride":12},{"buffer":0,"byteOffset":50352,"byteLength":1344,"target":34962,"byteStride":12},{"buffer":0,"byteOffset":51696,"byteLength":896,"target":34962,"byteStride":8},{"buffer":0,"byteOffset":52592,"byteLength":288,"target":34963},{"buffer":0,"byteOffset":52880,"byteLength":816,"target":34962,"byteStride":12},{"buffer":0,"byteOffset":53696,"byteLength":816,"target":34962,"byteStride":12},{"buffer":0,"byteOffset":54512,"byteLength":544,"target":34962,"byteStride":8},{"buffer":0,"byteOffset":55056,"byteLength":180,"target":34963},{"buffer":0,"byteOffset":55236,"byteLength":1344,"target":34962,"byteStride":12},{"buffer":0,"byteOffset":56580,"byteLength":1344,"target":34962,"byteStride":12},{"buffer":0,"byteOffset":57924,"byteLength":896,"target":34962,"byteStride":8},{"buffer":0,"byteOffset":58820,"byteLength":288,"target":34963},{"buffer":0,"byteOffset":59108,"byteLength":816,"target":34962,"byteStride":12},{"buffer":0,"byteOffset":59924,"byteLength":816,"target":34962,"byteStride":12},{"buffer":0,"byteOffset":60740,"byteLength":544,"target":34962,"byteStride":8},{"buffer":0,"byteOffset":61284,"byteLength":180,"target":34963},{"buffer":0,"byteOffset":61464,"byteLength":1344,"target":34962,"byteStride":12},{"buffer":0,"byteOffset":62808,"byteLength":1344,"target":34962,"byteStride":12},{"buffer":0,"byteOffset":64152,"byteLength":896,"target":34962,"byteStride":8},{"buffer":0,"byteOffset":65048,"byteLength":288,"target":34963}],"buffers":[{"byteLength":65336,"uri":"data:application/octet-stream;base64,"}],"accessors":[{"bufferView":0,"componentType":5126,"count":128,"max":[0.6875,1.875,1.1875],"min":[-0.6875,-0.875,-0.1875],"type":"VEC3"},{"bufferView":1,"componentType":5126,"count":128,"max":[1,1,1],"min":[-1,-1,-1],"type":"VEC3"},{"bufferView":2,"componentType":5126,"count":128,"max":[0.5232184529304504,0.5933119654655457],"min":[0,0],"type":"VEC2"},{"bufferView":3,"componentType":5123,"count":144,"max":[127],"min":[0],"type":"SCALAR"},{"bufferView":4,"componentType":5126,"count":396,"max":[0.5,0.78125,0.5],"min":[-0.5,0.15625,-0.5],"type":"VEC3"},{"bufferView":5,"componentType":5126,"count":396,"max":[0.9701424837112427,0.9701424837112427,1],"min":[-0.9701424837112427,-1,-0.8320503234863281],"type":"VEC3"},{"bufferView":6,"componentType":5126,"count":396,"max":[0.7436140775680542,0.7663468718528748],"min":[0.002973125549033284,0],"type":"VEC2"},{"bufferView":7,"componentType":5123,"count":570,"max":[395],"min":[0],"type":"SCALAR"},{"bufferView":8,"componentType":5126,"count":480,"max":[0.25,1.4375,0.25],"min":[-0.25,0.9375,-0.25],"type":"VEC3"},{"bufferView":9,"componentType":5126,"count":480,"max":[0.9807852506637573,0.9807853102684021,0.9807852506637573],"min":[-0.9807852506637573,-0.9807853102684021,-0.9807852506637573],"type":"VEC3"},{"bufferView":10,"componentType":5126,"count":480,"max":[0.734375,0.734375],"min":[0.09633132815361023,0.012784242630004883],"type":"VEC2"},{"bufferView":11,"componentType":5123,"count":672,"max":[479],"min":[0],"type":"SCALAR"},{"bufferView":12,"componentType":5126,"count":98,"max":[0.4211002588272095,1.5625,0.29374998807907104],"min":[-0.4211002588272095,0.75,-0.29374998807907104],"type":"VEC3"},{"bufferView":13,"componentType":5126,"count":98,"max":[0.8391748666763306,1,0.9950371980667114],"min":[-0.8391748666763306,-0.22578531503677368,-0.9950371980667114],"type":"VEC3"},{"bufferView":14,"componentType":5126,"count":98,"max":[0.546875,0.6597815752029419],"min":[0,0],"type":"VEC2"},{"bufferView":15,"componentType":5123,"count":138,"max":[97],"min":[0],"type":"SCALAR"},{"bufferView":16,"componentType":5126,"count":98,"max":[1.4293001890182495,-0.25,0.109375],"min":[1.0550748109817505,-0.5625,-0.109375],"type":"VEC3"},{"bufferView":17,"componentType":5126,"count":98,"max":[0.8821293711662292,1,1],"min":[-0.8821293711662292,-1,-1],"type":"VEC3"},{"bufferView":18,"componentType":5126,"count":98,"max":[0.70302814245224,0.75],"min":[0,0],"type":"VEC2"},{"bufferView":19,"componentType":5123,"count":138,"max":[97],"min":[0],"type":"SCALAR"},{"bufferView":20,"componentType":5126,"count":112,"max":[0.71875,1.40625,0.09375],"min":[0.53125,1.21875,-0.09375],"type":"VEC3"},{"bufferView":21,"componentType":5126,"count":112,"max":[0.9238795042037964,0.9238795042037964,0.9238795042037964],"min":[-0.9238795042037964,-0.9238795042037964,-0.9238795042037964],"type":"VEC3"},{"bufferView":22,"componentType":5126,"count":112,"max":[0.7440828084945679,0.75],"min":[0.005917187314480543,0],"type":"VEC2"},{"bufferView":23,"componentType":5123,"count":144,"max":[111],"min":[0],"type":"SCALAR"},{"bufferView":24,"componentType":5126,"count":98,"max":[0.18340006470680237,-1.046875,0.109375],"min":[-0.25742512941360474,-1.4375,-0.109375],"type":"VEC3"},{"bufferView":25,"componentType":5126,"count":98,"max":[0.8071091771125793,1,1],"min":[-0.8821293711662292,-1,-1],"type":"VEC3"},{"bufferView":26,"componentType":5126,"count":98,"max":[0.7184968590736389,0.78125],"min":[0,0],"type":"VEC2"},{"bufferView":27,"componentType":5123,"count":138,"max":[97],"min":[0],"type":"SCALAR"},{"bufferView":28,"componentType":5126,"count":112,"max":[-0.53125,1.40625,0.09375],"min":[-0.71875,1.21875,-0.09375],"type":"VEC3"},{"bufferView":29,"componentType":5126,"count":112,"max":[0.9238795042037964,0.9238795042037964,0.9238795042037964],"min":[-0.9238795042037964,-0.9238795042037964,-0.9238795042037964],"type":"VEC3"},{"bufferView":30,"componentType":5126,"count":112,"max":[0.7440828084945679,0.7400623559951782],"min":[0.04308281093835831,0],"type":"VEC2"},{"bufferView":31,"componentType":5123,"count":144,"max":[111],"min":[0],"type":"SCALAR"},{"bufferView":32,"componentType":5126,"count":68,"max":[0.328125,0.75,0.140625],"min":[0.046875,0.625,-0.140625],"type":"VEC3"},{"bufferView":33,"componentType":5126,"count":68,"max":[0.9922778606414795,1,0.9922778606414795],"min":[-0.9922778606414795,-1,-0.9922778606414795],"type":"VEC3"},{"bufferView":34,"componentType":5126,"count":68,"max":[0.7333124876022339,0.734375],"min":[0,0],"type":"VEC2"},{"bufferView":35,"componentType":5123,"count":90,"max":[67],"min":[0],"type":"SCALAR"},{"bufferView":36,"componentType":5126,"count":112,"max":[0.25,0.6875,0.0625],"min":[0.125,0.5625,-0.0625],"type":"VEC3"},{"bufferView":37,"componentType":5126,"count":112,"max":[0.9238795042037964,0.9238795042037964,0.9238795042037964],"min":[-0.9238795042037964,-0.9238795042037964,-0.9238795042037964],"type":"VEC3"},{"bufferView":38,"componentType":5126,"count":112,"max":[0.7311351299285889,0.7277493476867676],"min":[0,0],"type":"VEC2"},{"bufferView":39,"componentType":5123,"count":144,"max":[111],"min":[0],"type":"SCALAR"},{"bufferView":40,"componentType":5126,"count":68,"max":[0.328125,0.75,0.140625],"min":[0.046875,0.625,-0.140625],"type":"VEC3"},{"bufferView":41,"componentType":5126,"count":68,"max":[0.9922778606414795,1,0.9922778606414795],"min":[-0.9922778606414795,-1,-0.9922778606414795],"type":"VEC3"},{"bufferView":42,"componentType":5126,"count":68,"max":[0.7333124876022339,0.734375],"min":[0.0021250001154839993,0],"type":"VEC2"},{"bufferView":43,"componentType":5123,"count":90,"max":[67],"min":[0],"type":"SCALAR"},{"bufferView":44,"componentType":5126,"count":112,"max":[0.25,0.6875,0.0625],"min":[0.125,0.5625,-0.0625],"type":"VEC3"},{"bufferView":45,"componentType":5126,"count":112,"max":[0.9238795042037964,0.9238795042037964,0.9238795042037964],"min":[-0.9238795042037964,-0.9238795042037964,-0.9238795042037964],"type":"VEC3"},{"bufferView":46,"componentType":5126,"count":112,"max":[0.7311351299285889,0.7277493476867676],"min":[0.001340624992735684,0],"type":"VEC2"},{"bufferView":47,"componentType":5123,"count":144,"max":[111],"min":[0],"type":"SCALAR"}],"materials":[{"pbrMetallicRoughness":{"metallicFactor":0,"roughnessFactor":1,"baseColorTexture":{"index":0}},"alphaMode":"MASK","alphaCutoff":0.05,"doubleSided":true},{"pbrMetallicRoughness":{"metallicFactor":0,"roughnessFactor":1,"baseColorTexture":{"index":1}},"alphaMode":"MASK","alphaCutoff":0.05,"doubleSided":true}],"textures":[{"sampler":0,"source":0},{"sampler":1,"source":1}],"samplers":[{"magFilter":9728,"minFilter":9728,"wrapS":33071,"wrapT":33071},{"magFilter":9728,"minFilter":9728,"wrapS":33071,"wrapT":33071}],"images":[{"mimeType":"image/png","uri":"data:image/png;base64,"},{"mimeType":"image/png","uri":"data:image/png;base64,"}],"meshes":[{"primitives":[{"mode":4,"attributes":{"POSITION":0,"NORMAL":1,"TEXCOORD_0":2},"indices":3,"material":0}]},{"primitives":[{"mode":4,"attributes":{"POSITION":4,"NORMAL":5,"TEXCOORD_0":6},"indices":7,"material":1}]},{"primitives":[{"mode":4,"attributes":{"POSITION":8,"NORMAL":9,"TEXCOORD_0":10},"indices":11,"material":1}]},{"primitives":[{"mode":4,"attributes":{"POSITION":12,"NORMAL":13,"TEXCOORD_0":14},"indices":15,"material":1}]},{"primitives":[{"mode":4,"attributes":{"POSITION":16,"NORMAL":17,"TEXCOORD_0":18},"indices":19,"material":1}]},{"primitives":[{"mode":4,"attributes":{"POSITION":20,"NORMAL":21,"TEXCOORD_0":22},"indices":23,"material":1}]},{"primitives":[{"mode":4,"attributes":{"POSITION":24,"NORMAL":25,"TEXCOORD_0":26},"indices":27,"material":1}]},{"primitives":[{"mode":4,"attributes":{"POSITION":28,"NORMAL":29,"TEXCOORD_0":30},"indices":31,"material":1}]},{"primitives":[{"mode":4,"attributes":{"POSITION":32,"NORMAL":33,"TEXCOORD_0":34},"indices":35,"material":1}]},{"primitives":[{"mode":4,"attributes":{"POSITION":36,"NORMAL":37,"TEXCOORD_0":38},"indices":39,"material":1}]},{"primitives":[{"mode":4,"attributes":{"POSITION":40,"NORMAL":41,"TEXCOORD_0":42},"indices":43,"material":1}]},{"primitives":[{"mode":4,"attributes":{"POSITION":44,"NORMAL":45,"TEXCOORD_0":46},"indices":47,"material":1}]}]}