<svg width="241" height="61" viewBox="0 0 241 61" fill="none" xmlns="http://www.w3.org/2000/svg">
<g clip-path="url(#clip0_1001_18019)">
<path d="M5.01495 6.00921C4.75045 9.01275 4.54943 12.0163 4.38015 15.0302C4.29551 16.5996 6.9511 16.5892 6.85588 15.0095C6.6866 12.0059 6.48558 9.01275 6.22108 6.00921C6.1576 5.22974 5.07843 5.25052 5.00437 6.00921" fill="#00A79D"/>
<path d="M8.77087 6.88219C6.4221 8.82567 4.12622 10.8003 1.84093 12.8165C0.645384 13.8662 2.51806 15.7162 3.58664 14.5522C5.62859 12.3073 7.64939 10.0416 9.62786 7.73441C10.1357 7.14202 9.37394 6.38334 8.77087 6.88219Z" fill="#662D91"/>
<path d="M9.64902 13.8974C7.67055 11.5901 5.64975 9.33488 3.61838 7.09001C2.5498 5.91562 0.666544 7.75516 1.85151 8.80484C4.1368 10.8107 6.44326 12.7957 8.78145 14.7392C9.38452 15.238 10.1569 14.4898 9.64902 13.8974Z" fill="#F7941D"/>
<path d="M0.581904 11.4136C3.63954 11.6734 6.6866 11.8605 9.74424 12.0372C11.3524 12.1307 11.3524 9.51169 9.7654 9.60523C6.70776 9.77152 3.63954 9.96898 0.581904 10.2184C-0.201021 10.2912 -0.201021 11.3512 0.581904 11.4136Z" fill="#EF4136"/>
<path d="M15.9653 56.4459C14.4735 58.1608 12.9923 58.8779 11.2254 58.8987C9.3951 58.9091 7.90331 58.1816 6.7395 56.9968C5.57569 55.812 4.62349 54.3882 3.8723 52.7045C3.12112 51.0209 2.58154 49.2333 2.25355 47.3106C1.91499 45.3879 1.67165 43.6627 1.50237 42.1037C1.16381 38.3519 1.07917 34.5689 1.24845 30.7755C1.41773 26.9821 1.53411 23.8122 1.61875 21.2868C1.87267 20.393 2.47573 19.7382 3.42794 19.3329C4.38015 18.9276 5.38525 18.7197 6.4221 18.7197C7.45895 18.7197 8.40057 18.9484 9.22582 19.3953C10.0511 19.8422 10.4319 20.4761 10.3473 21.2972C10.2627 22.1182 10.1145 23.542 9.91352 25.5894C9.7125 27.6368 9.49032 29.9544 9.2893 32.5735C9.07769 35.1821 8.91899 37.8946 8.79203 40.7215C8.66507 43.538 8.66507 46.1154 8.79203 48.433C8.91899 50.7506 9.1835 52.6525 9.6067 54.1283C10.0193 55.5937 10.7388 56.2069 11.7227 56.2069C12.6432 56.2069 13.4049 55.7392 14.0292 55.0429C14.6534 54.357 15.2988 53.3073 15.9653 51.925C16.6319 50.6987 17.2138 49.3372 17.711 47.8198C18.2083 46.3129 18.6421 44.8163 19.0124 43.3509C19.3827 41.8855 19.7001 40.5136 19.954 39.2457C20.2079 37.9778 20.3666 36.98 20.4513 36.2422C20.5359 35.8368 20.7052 35.525 20.9485 35.3172C21.2024 35.1197 21.4669 35.0158 21.7632 35.0158C22.0594 35.0158 22.3028 35.1197 22.5144 35.3172C22.7154 35.525 22.8318 35.8264 22.8318 36.2422C22.7471 37.2191 22.5355 38.6117 22.2076 40.4097C21.869 42.2077 21.4352 44.0784 20.8956 46.0427C20.356 47.9965 19.6683 49.9192 18.8431 51.8003C18.0178 53.671 17.0551 55.2196 15.9759 56.4459H15.9653Z" fill="#27AAE1"/>
<path d="M55.1115 35.2548C55.4395 35.1716 55.7358 35.234 55.9791 35.4315C56.233 35.6393 56.3917 35.8991 56.4764 36.2317C56.561 36.5643 56.5187 36.8657 56.3494 37.1567C56.1801 37.4477 55.9262 37.6244 55.5982 37.7075C54.4344 37.9569 53.3341 38.1752 52.2973 38.383C51.2604 38.5909 50.1918 38.7676 49.1232 38.9339C50.287 42.3635 51.5566 45.6269 52.9215 48.7344C54.2969 51.8419 55.7675 54.5752 57.3439 56.9448C57.5979 57.3605 57.4921 57.8178 57.0265 58.3582C56.5716 58.8882 56.0109 58.909 55.3443 58.4206C53.186 56.3004 51.2287 53.6398 49.483 50.4596C47.7372 47.2794 46.0762 43.725 44.4997 39.8069L27.4235 43.4756L24.6833 57.6827C24.514 58.4206 24.0379 58.9714 23.2444 59.3351C22.4509 59.6989 21.5833 59.9067 20.6311 59.9483C19.6789 59.9899 18.7585 59.886 17.8909 59.6365C17.0233 59.3871 16.4203 58.9818 16.0817 58.4102C15.9124 58.088 15.8807 57.7138 15.9547 57.3085C16.2087 55.4378 16.5155 53.5151 16.8964 51.5508C17.2772 49.5866 17.6687 47.5912 18.0813 45.5541H17.8274C17.4042 45.6373 17.0974 45.5334 16.8858 45.2424C16.6742 44.9618 16.5472 44.5876 16.5155 44.1407C16.4732 43.6938 16.5155 43.2677 16.6424 42.852C16.7694 42.4467 16.9916 42.1661 17.3301 41.9998L18.9489 41.636C19.3615 39.6822 19.8165 37.7387 20.3243 35.816C20.8216 33.8933 21.3188 32.0018 21.8161 30.1207C22.6519 26.691 23.456 23.4069 24.2495 20.2578C25.0324 17.1192 25.7836 14.3027 26.4925 11.8084C27.1908 9.31411 27.8679 7.19396 28.4921 5.43756C29.1163 3.68116 29.6348 2.51716 30.0474 1.94555C30.3754 1.45708 30.989 1.17647 31.8566 1.09333C32.7241 1.01019 33.6658 1.05176 34.6603 1.21804C35.6548 1.38433 36.5541 1.68572 37.337 2.14301C38.12 2.58991 38.649 3.1823 38.8923 3.9202C40.2254 8.32679 41.6325 13.4193 43.1349 19.1666C44.6267 24.9242 46.3301 30.6611 48.2451 36.3772L55.101 35.2652L55.1115 35.2548ZM43.3888 37.0943C42.0557 33.5815 40.8179 29.9336 39.6435 26.1298C38.4797 22.3364 37.4005 18.4703 36.3954 14.5521C35.4009 11.8604 34.4064 12.5463 33.4013 16.6307C32.4808 20.3098 31.5921 24.124 30.7245 28.0837C29.8569 32.0434 29 35.9407 28.1641 39.7861L43.3783 37.0943H43.3888Z" fill="#254D81"/>
<path d="M77.4249 26.7638V10.9666H79.2976V25.0905H86.3862V26.7638H77.4249Z" fill="#27AAE1"/>
<path d="M90.3008 10.9667L90.4701 11.1953C90.2797 11.9228 90.0046 12.7543 89.6449 13.7104C89.2852 14.6666 88.9043 15.5604 88.5234 16.371H87.1903C87.6982 14.3236 88.0684 12.5152 88.3118 10.9563H90.3008V10.9667Z" fill="#27AAE1"/>
<path d="M92.9459 26.7638V10.9666H94.8185V26.7638H92.9459Z" fill="#27AAE1"/>
<path d="M111.789 26.7638H109.662L100.87 13.5128H100.775C100.891 15.0717 100.955 16.4956 100.955 17.7843V26.7638H99.2304V10.9666H101.336L110.107 24.1759H110.202C110.191 23.9889 110.16 23.3549 110.096 22.3052C110.054 21.2451 110.033 20.4968 110.043 20.0396V10.9769H111.789V26.7742V26.7638Z" fill="#27AAE1"/>
<path d="M121.152 26.7638H119.28V12.5982H114.18V10.9666H126.231V12.5982H121.131V26.7638H121.142H121.152Z" fill="#27AAE1"/>
<path d="M137.636 26.7638H128.664V10.9666H137.625V12.5982H130.537V17.6804H137.192V19.3017H130.537V25.1113H137.625V26.7534H137.636V26.7638Z" fill="#27AAE1"/>
<path d="M141.191 26.7638V10.9666H143.064V25.0905H150.152V26.7638H141.191Z" fill="#27AAE1"/>
<path d="M152.882 26.7638V10.9666H154.755V25.0905H161.843V26.7638H152.882Z" fill="#27AAE1"/>
<path d="M164.562 26.7638V10.9666H166.435V26.7638H164.562Z" fill="#27AAE1"/>
<path d="M177.914 18.4806H183.384V26.161C182.538 26.4312 181.67 26.6287 180.792 26.7638C179.914 26.8989 178.888 26.9612 177.734 26.9612C175.301 26.9612 173.407 26.2441 172.053 24.8203C170.699 23.3965 170.011 21.401 170.011 18.8444C170.011 17.2023 170.35 15.7577 171.016 14.5313C171.683 13.305 172.645 12.3488 173.915 11.7045C175.174 11.0497 176.655 10.7275 178.348 10.7275C180.041 10.7275 181.67 11.0393 183.141 11.6629L182.411 13.2842C180.961 12.6814 179.554 12.3696 178.221 12.3696C176.264 12.3696 174.73 12.9412 173.629 14.0844C172.529 15.2277 171.979 16.8178 171.979 18.8444C171.979 20.9853 172.508 22.5962 173.566 23.6979C174.635 24.7995 176.179 25.3503 178.232 25.3503C179.343 25.3503 180.443 25.2256 181.49 24.9762V20.1123H177.904V18.4806H177.914Z" fill="#27AAE1"/>
<path d="M196.207 26.7638H187.246V10.9666H196.207V12.5982H189.119V17.6804H195.773V19.3017H189.119V25.1113H196.207V26.7534V26.7638Z" fill="#27AAE1"/>
<path d="M212.321 26.7638H210.194L201.402 13.5128H201.307C201.423 15.0717 201.487 16.4956 201.487 17.7843V26.7638H199.762V10.9666H201.868L210.638 24.1759H210.734C210.723 23.9889 210.691 23.3549 210.628 22.3052C210.586 21.2451 210.564 20.4968 210.575 20.0396V10.9769H212.321V26.7742V26.7638Z" fill="#27AAE1"/>
<path d="M223.641 12.3801C221.875 12.3801 220.478 12.9621 219.462 14.1157C218.447 15.2693 217.928 16.849 217.928 18.8652C217.928 20.8815 218.415 22.5236 219.409 23.6564C220.393 24.7788 221.8 25.3504 223.62 25.3504C224.742 25.3504 226.022 25.153 227.461 24.758V26.3689C226.35 26.7846 224.974 26.9821 223.335 26.9821C220.965 26.9821 219.134 26.2858 217.854 24.8723C216.563 23.4589 215.928 21.4531 215.928 18.8549C215.928 17.2336 216.235 15.7993 216.86 14.573C217.484 13.3466 218.372 12.4009 219.547 11.7461C220.711 11.081 222.097 10.7588 223.684 10.7588C225.366 10.7588 226.847 11.0602 228.096 11.6734L227.302 13.2531C226.064 12.6711 224.847 12.3905 223.631 12.3905L223.641 12.3801Z" fill="#27AAE1"/>
<path d="M239.924 26.7638H230.963V10.9666H239.924V12.5982H232.835V17.6804H239.49V19.3017H232.835V25.1113H239.924V26.7534V26.7638Z" fill="#27AAE1"/>
<path d="M88.1108 50.2725L86.1111 45.2423H79.6679L77.6894 50.2725H75.7956L82.1542 34.4233H83.7306L90.0469 50.2725H88.1213H88.1108ZM85.5292 43.5899L83.6566 38.6948C83.4238 38.0712 83.1699 37.3126 82.9054 36.4188C82.7467 37.1047 82.5139 37.8634 82.2177 38.6948L80.3238 43.5899H85.5187H85.5292Z" fill="#254D81"/>
<path d="M102.447 39.0793C102.447 40.6798 101.897 41.9062 100.786 42.7688C99.6748 43.621 98.0878 44.0575 96.0141 44.0575H94.1202V50.262H92.2476V34.4648H96.4161C100.437 34.4648 102.436 36.003 102.436 39.0689L102.447 39.0793ZM94.1202 42.4674H95.8025C97.453 42.4674 98.6591 42.1972 99.3997 41.6775C100.14 41.1579 100.511 40.3057 100.511 39.152C100.511 38.1024 100.161 37.3229 99.4738 36.8136C98.7755 36.3044 97.6963 36.0446 96.2257 36.0446H94.1414V42.4674H94.1202Z" fill="#254D81"/>
<path d="M116.01 39.0793C116.01 40.6798 115.46 41.9062 114.349 42.7688C113.238 43.621 111.651 44.0575 109.578 44.0575H107.684V50.262H105.811V34.4648H109.98C114 34.4648 116 36.003 116 39.0689L116.01 39.0793ZM107.684 42.4674H109.366C111.017 42.4674 112.223 42.1972 112.963 41.6775C113.704 41.1579 114.074 40.3057 114.074 39.152C114.074 38.1024 113.725 37.3229 113.037 36.8136C112.339 36.3044 111.26 36.0446 109.789 36.0446H107.705V42.4674H107.684Z" fill="#254D81"/>
<path d="M121.237 43.6937V50.262H119.364V34.4648H123.766C125.733 34.4648 127.194 34.8286 128.135 35.5769C129.077 36.3252 129.553 37.4372 129.553 38.9234C129.553 41.0124 128.474 42.4258 126.326 43.1637L130.685 50.262H128.474L124.58 43.6937H121.226H121.237ZM121.237 42.114H123.797C125.12 42.114 126.083 41.8542 126.696 41.3449C127.31 40.8357 127.627 40.0562 127.627 39.0273C127.627 37.9984 127.31 37.2294 126.686 36.7721C126.061 36.3148 125.056 36.0861 123.66 36.0861H121.226V42.114H121.237Z" fill="#254D81"/>
<path d="M142.26 50.2725H133.298V34.4753H142.26V36.107H135.171V41.1892H141.826V42.8104H135.171V48.6201H142.26V50.2622V50.2725Z" fill="#254D81"/>
<path d="M158.384 50.2725H156.257L147.465 37.0216H147.37C147.486 38.5805 147.55 40.0044 147.55 41.2931V50.2725H145.825V34.4753H147.93L156.701 47.6847H156.797C156.786 47.4976 156.754 46.8637 156.691 45.814C156.648 44.7539 156.627 44.0056 156.638 43.5483V34.4857H158.384V50.2829V50.2725Z" fill="#254D81"/>
<path d="M167.757 50.2725H165.885V36.107H160.785V34.4753H172.836V36.107H167.736V50.2725H167.747H167.757Z" fill="#254D81"/>
<path d="M175.259 50.2725V34.4753H177.131V50.2725H175.259Z" fill="#254D81"/>
<path d="M190.505 50.2725H181.543V34.4753H190.505V36.107H183.416V41.1892H190.071V42.8104H183.416V48.6201H190.505V50.2622V50.2725Z" fill="#254D81"/>
</g>
<defs>
<clipPath id="clip0_1001_18019">
<rect width="239.924" height="58.8966" fill="white" transform="translate(0 1.05176)"/>
</clipPath>
</defs>
</svg>
